# xmcd
#
# Track frame offsets:
#	150
#	25154
#	44296
#	69813
#
# Disc length: 1276 seconds
#
# Revision: 1
# Processed by: cddbd v1.5.1PL0 Copyright (c) Steve Scherf et al.
# Submitted via: CDex 1.50Beta5
#
DISCID=2704fa04
DTITLE=米光美保 - Birth
DYEAR=2003
DGENRE=Pop
TTITLE0=Birth
TTITLE1=Smile
TTITLE2=星空に抱かれて
TTITLE3=Birth ( Analog Mix )
EXTD=
EXTT0=
EXTT1=
EXTT2=
EXTT3=
PLAYORDER=
